<?xml version="1.0" encoding="UTF-8"?>
<svg width="220px" height="39px" viewBox="0 0 220 39" version="1.1" xmlns="http://www.w3.org/2000/svg" xmlns:xlink="http://www.w3.org/1999/xlink">
    <g stroke="none" stroke-width="1" fill="none" fill-rule="evenodd">
        <g transform="translate(-40.000000, -42.000000)" fill="#FFFFFF" fill-rule="nonzero">
            <g transform="translate(40.000000, 42.000000)">
                <path d="M0.001675091,38.6702787 L0.001675091,14.0071256 L0.001675091,10.7758569 C0.001675091,10.7758569 -0.170995444,6.2476844 2.98987528,3.06037852 C6.28154066,-0.258815877 10.7939561,0.0049611616 10.7939561,0.0049611616 L27.7536625,0.0049611616 L27.7536625,8.02817941 L11.5569249,8.02817941 C11.5569249,8.02817941 10.1181837,7.89629089 8.94103189,9.08328757 C7.89467469,10.1383957 8.04726844,11.1055782 8.04726844,11.1055782 L8.04726844,14.0071256 L27.8190598,14.0071256 L27.8190598,26.7123863 C27.8190598,26.7123863 27.8190598,30.778949 31.9172922,30.778949 C35.9065291,30.778949 35.9719264,26.7123863 35.9719264,26.7123863 L35.9719264,14.0071256 L56.593883,14.0071256 C56.593883,14.0071256 61.6512761,13.8312743 65.0083389,17.2164129 C68.4307989,20.6674958 68.1038123,24.8219842 68.1038123,24.8219842 L68.1038123,34.0321991 L77.499228,21.9643996 L68.7795846,21.9643996 L68.7795846,14.0071256 L98.7533587,14.0071256 L98.7533587,23.1074334 C98.7533587,23.1074334 100.279296,13.8312743 110.786467,13.8312743 C122.034807,13.8312743 122.797775,23.9427274 122.797775,23.9427274 C122.797775,23.9427274 123.386351,13.8312743 134.91808,13.8312743 C146.362612,13.8312743 146.994786,24.1405602 146.994786,24.1405602 C146.994786,24.1405602 147.278174,20.0959789 149.959465,17.2164129 C153.01134,13.9411814 157.65455,14.029107 157.65455,14.029107 L171.496984,14.029107 L171.496984,23.8767831 C171.496984,23.8767831 172.129158,13.8532557 183.486493,13.8532557 C194.931025,13.8532557 195.5414,23.766876 195.5414,23.766876 C195.5414,23.766876 196.609557,13.8532557 207.618106,13.8532557 C216.969924,13.8532557 220,20.9752357 220,26.4486093 C220,31.9219828 216.991723,38.9780186 207.618106,38.9780186 C197.176333,38.9780186 195.5414,29.8337479 195.5414,29.8337479 L195.5414,38.736223 L187.628324,38.736223 L187.628324,25.8331295 C187.628324,25.8331295 187.410333,22.0083624 183.486493,22.0083624 C179.628051,22.0083624 179.431859,25.8331295 179.431859,25.8331295 L179.431859,38.736223 L157.719947,38.736223 C157.719947,38.736223 152.945942,38.8241486 150.133857,35.7247684 C147.060183,32.3176484 147.060183,29.3061938 147.060183,29.3061938 L147.060183,38.7582044 L138.994513,38.7582044 L138.994513,25.8551109 C138.994513,25.8551109 138.841919,22.0083624 134.939879,22.0083624 C130.972441,22.0083624 130.798048,25.8551109 130.798048,25.8551109 L130.798048,38.7582044 L122.797775,38.7582044 L122.797775,29.5919523 C122.797775,29.5919523 121.511628,39 110.786467,39 C100.039506,39 98.7533587,29.5919523 98.7533587,29.5919523 L98.7533587,38.7582044 L60.0381421,38.7582044 L60.0381421,25.965018 C60.0381421,25.965018 60.016343,22.0083624 56.0271062,22.0083624 C51.972472,22.0083624 51.9070747,25.965018 51.9070747,25.965018 L51.9070747,38.7582044 L43.8632036,38.7582044 L43.8632036,28.5368441 C43.8632036,28.5368441 43.7542081,39 31.873694,39 C19.7969879,39 19.7315906,28.5368441 19.7315906,28.5368441 L19.7315906,22.0962881 L11.8185142,22.0962881 C11.8185142,22.0962881 10.1181837,21.9424182 8.962831,23.1074334 C7.9382729,24.1405602 8.04726844,25.1297241 8.04726844,25.1297241 L8.04726844,38.7142415 C8.02546934,38.6702787 0.0469956402,38.6702787 0.001675091,38.6702787 Z M80.9434871,30.6030976 L90.7312868,30.6030976 L90.7312868,18.0517069 L80.9434871,30.6030976 Z M110.742868,21.9204368 C108.388565,21.9204368 106.666435,23.8767831 106.666435,26.3167207 C106.666435,28.7566583 108.214172,30.7569676 110.742868,30.7569676 C113.271565,30.7569676 114.819302,28.7786398 114.819302,26.3167207 C114.819302,23.8548017 113.206168,21.9204368 110.742868,21.9204368 Z M207.639906,21.9204368 C205.285602,21.9204368 203.563472,23.8767831 203.563472,26.3167207 C203.563472,28.7566583 205.111209,30.7569676 207.639906,30.7569676 C210.168602,30.7569676 211.716339,28.7786398 211.716339,26.3167207 C211.716339,23.8548017 210.103205,21.9204368 207.639906,21.9204368 Z M158.962496,22.0523253 C158.962496,22.0523253 154.842465,22.1182695 154.842465,26.3387022 C154.842465,30.5591348 158.809903,30.5371545 158.809903,30.5371545 L163.474912,30.5371545 L163.474912,22.0523253 L158.962496,22.0523253 Z M98.7315596,0.0489240013 L90.7312868,0.0489240013 L90.7312868,8.11610509 L98.7315596,8.11610509 L98.7315596,0.0489240013 Z" id="Shape"></path>
            </g>
        </g>
    </g>
</svg>